:FULLY-SPECIFIED
:FORCE-ALL-JOINTS-BE-3DOF
:DEGREES
102
root -2.86168 16.5075 -36.2275 2.76852 0.291455 -2.38489
lfemur -21.0372 5.95104 -8.97417
ltibia 44.7079 0 0
lfoot -21.6642 -0.173014 0
ltoes -7.70838 0 0
rfemur -21.4604 -5.83905 13.9245
rtibia 47.3495 0 0
rfoot -25.5806 1.49464 0
rtoes -6.55276 0 0
lowerback 8.51777 1.97235 -1.63961
upperback -3.44475 2.54938 1.22659
thorax -8.56678 1.3708 1.81709
lowerneck -2.49814 -3.86765 -6.62151
upperneck 5.27487 -5.21012 6.01152
head 2.52088 -2.57908 2.97963
lclavicle -7.30945e-16 6.96968e-15 0
lhumerus -26.5668 -4.03023 89.4262
lradius 24.9863 0 0
lwrist -30.532 0 0
lhand -28.6725 30.3459 0
lfingers 7.12502 0 0
lthumb -2.03543 60.3159 0
rclavicle -7.30945e-16 6.96968e-15 0
rhumerus -32.529 3.00769 -80.5017
rradius 30.6812 0 0
rwrist 2.52077 0 0
rhand -19.9525 -27.0873 0
rfingers 7.12502 0 0
rthumb 6.38564 -56.9716 0
103
root -2.85965 16.5059 -36.2252 2.81076 0.299992 -2.3992
lfemur -21.0944 5.94312 -8.96896
ltibia 44.743 0 0
lfoot -21.6892 -0.14689 0
ltoes -7.77176 0 0
rfemur -21.5046 -5.85932 13.9332
rtibia 47.3646 0 0
rfoot -25.5962 1.50651 0
rtoes -6.58472 0 0
lowerback 8.45504 1.97093 -1.65106
upperback -3.46639 2.54717 1.22852
thorax -8.55415 1.37067 1.8275
lowerneck -2.5017 -3.8685 -6.61885
upperneck 5.31205 -5.21276 6.0151
head 2.53426 -2.58026 2.98028
lclavicle -6.53931e-16 7.73952e-15 0
lhumerus -26.5649 -4.00321 89.4148
lradius 24.9864 0 0
lwrist -30.5385 0 0
lhand -28.6618 30.3594 0
lfingers 7.12502 0 0
lthumb -2.02503 60.3295 0
rclavicle -6.53931e-16 7.73952e-15 0
rhumerus -32.5371 2.9836 -80.5019
rradius 30.6755 0 0
rwrist 2.52698 0 0
rhand -19.942 -27.101 0
rfingers 7.12502 0 0
rthumb 6.39585 -56.985 0
104
root -2.85761 16.5042 -36.223 2.85278 0.308239 -2.41359
lfemur -21.1511 5.93449 -8.96357
ltibia 44.7773 0 0
lfoot -21.7138 -0.119575 0
ltoes -7.83698 0 0
rfemur -21.5484 -5.87929 13.9421
rtibia 47.3792 0 0
rfoot -25.6114 1.51869 0
rtoes -6.61697 0 0
lowerback 8.39286 1.96961 -1.66265
upperback -3.48786 2.54506 1.2305
thorax -8.54168 1.37058 1.838
lowerneck -2.50581 -3.86929 -6.61621
upperneck 5.34927 -5.21531 6.01882
head 2.54776 -2.58137 2.98099
lclavicle -5.77763e-16 8.50295e-15 0
lhumerus -26.563 -3.97584 89.4034
lradius 24.9865 0 0
lwrist -30.5451 0 0
lhand -28.651 30.3726 0
lfingers 7.12502 0 0
lthumb -2.0146 60.3427 0
rclavicle -5.77763e-16 8.50295e-15 0
rhumerus -32.5452 2.95909 -80.5019
rradius 30.6694 0 0
rwrist 2.53357 0 0
rhand -19.9321 -27.1144 0
rfingers 7.12502 0 0
rthumb 6.4054 -56.9981 0
105
root -2.85558 16.5026 -36.2207 2.89453 0.316212 -2.42801
lfemur -21.207 5.92529 -8.95803
ltibia 44.8109 0 0
lfoot -21.7379 -0.0912687 0
ltoes -7.90369 0 0
rfemur -21.5919 -5.89897 13.9512
rtibia 47.3933 0 0
rfoot -25.6264 1.53111 0
rtoes -6.64944 0 0
lowerback 8.33132 1.96837 -1.67432
upperback -3.50915 2.54304 1.2325
thorax -8.52938 1.37055 1.84855
lowerneck -2.51043 -3.87004 -6.61359
upperneck 5.38645 -5.21778 6.02266
head 2.56134 -2.58243 2.98174
lclavicle -5.0334e-16 9.25716e-15 0
lhumerus -26.5612 -3.94811 89.392
lradius 24.9866 0 0
lwrist -30.5519 0 0
lhand -28.6402 30.3854 0
lfingers 7.12502 0 0
lthumb -2.00417 60.3557 0
rclavicle -5.0334e-16 9.25716e-15 0
rhumerus -32.5532 2.9342 -80.5016
rradius 30.6631 0 0
rwrist 2.54052 0 0
rhand -19.9228 -27.1277 0
rfingers 7.12502 0 0
rthumb 6.41433 -57.0111 0
